<svg id="SvgjsSvg1148" width="864" height="641" xmlns="http://www.w3.org/2000/svg" version="1.1" xmlns:xlink="http://www.w3.org/1999/xlink" xmlns:svgjs="http://svgjs.com/svgjs"><defs id="SvgjsDefs1149"><marker id="SvgjsMarker1248" markerWidth="16" markerHeight="12" refX="11" refY="6" viewBox="0 0 16 12" orient="auto" markerUnits="userSpaceOnUse" stroke-dasharray="0,0"><path id="SvgjsPath1249" d="M0,0 L16,6 L0,12 L0,0" fill="#205375" stroke="#205375" stroke-width="1"></path></marker><marker id="SvgjsMarker1252" markerWidth="16" markerHeight="12" refX="11" refY="6" viewBox="0 0 16 12" orient="auto" markerUnits="userSpaceOnUse" stroke-dasharray="0,0"><path id="SvgjsPath1253" d="M0,0 L16,6 L0,12 L0,0" fill="#205375" stroke="#205375" stroke-width="1"></path></marker><marker id="SvgjsMarker1256" markerWidth="16" markerHeight="12" refX="11" refY="6" viewBox="0 0 16 12" orient="auto" markerUnits="userSpaceOnUse" stroke-dasharray="0,0"><path id="SvgjsPath1257" d="M0,0 L16,6 L0,12 L0,0" fill="#205375" stroke="#205375" stroke-width="1"></path></marker><marker id="SvgjsMarker1260" markerWidth="16" markerHeight="12" refX="11" refY="6" viewBox="0 0 16 12" orient="auto" markerUnits="userSpaceOnUse" stroke-dasharray="0,0"><path id="SvgjsPath1261" d="M0,0 L16,6 L0,12 L0,0" fill="#205375" stroke="#205375" stroke-width="1"></path></marker><marker id="SvgjsMarker1264" markerWidth="16" markerHeight="12" refX="11" refY="6" viewBox="0 0 16 12" orient="auto" markerUnits="userSpaceOnUse" stroke-dasharray="0,0"><path id="SvgjsPath1265" d="M0,0 L16,6 L0,12 L0,0" fill="#205375" stroke="#205375" stroke-width="1"></path></marker><marker id="SvgjsMarker1268" markerWidth="16" markerHeight="12" refX="11" refY="6" viewBox="0 0 16 12" orient="auto" markerUnits="userSpaceOnUse" stroke-dasharray="0,0"><path id="SvgjsPath1269" d="M0,0 L16,6 L0,12 L0,0" fill="#205375" stroke="#205375" stroke-width="1"></path></marker><marker id="SvgjsMarker1272" markerWidth="16" markerHeight="12" refX="11" refY="6" viewBox="0 0 16 12" orient="auto" markerUnits="userSpaceOnUse" stroke-dasharray="0,0"><path id="SvgjsPath1273" d="M0,0 L16,6 L0,12 L0,0" fill="#205375" stroke="#205375" stroke-width="1"></path></marker><marker id="SvgjsMarker1276" markerWidth="16" markerHeight="12" refX="11" refY="6" viewBox="0 0 16 12" orient="auto" markerUnits="userSpaceOnUse" stroke-dasharray="0,0"><path id="SvgjsPath1277" d="M0,0 L16,6 L0,12 L0,0" fill="#205375" stroke="#205375" stroke-width="1"></path></marker></defs><g id="SvgjsG1150" transform="translate(25,25)"><path id="SvgjsPath1151" d="M 0 4Q 0 0 4 0L 422 0Q 426 0 426 4L 426 92Q 426 96 422 96L 4 96Q 0 96 0 92Z" stroke="none" fill-opacity="1" fill="#205375"></path><g id="SvgjsG1152"><text id="SvgjsText1153" font-family="微软雅黑" text-anchor="middle" font-size="13px" width="406px" fill="#323232" font-weight="400" align="middle" lineHeight="125%" anchor="middle" family="微软雅黑" size="13px" weight="400" font-style="" opacity="1" y="37.375" transform="rotate(0)"></text></g></g><g id="SvgjsG1154" transform="translate(51,49)"><path id="SvgjsPath1155" d="M 0 4Q 0 0 4 0L 98 0Q 102 0 102 4L 102 44Q 102 48 98 48L 4 48Q 0 48 0 44Z" stroke="rgba(255,255,255,1)" stroke-width="2" fill-opacity="1" fill="#205375"></path><g id="SvgjsG1156"><text id="SvgjsText1157" font-family="微软雅黑" text-anchor="middle" font-size="13px" width="82px" fill="#ffffff" font-weight="700" align="middle" lineHeight="125%" anchor="middle" family="微软雅黑" size="13px" weight="700" font-style="" opacity="1" y="4.875" transform="rotate(0)"><tspan id="SvgjsTspan1158" dy="16" x="51"><tspan id="SvgjsTspan1159" style="text-decoration:;">dubbo</tspan></tspan><tspan id="SvgjsTspan1160" dy="16" x="51"><tspan id="SvgjsTspan1161" style="text-decoration:;">filter</tspan></tspan></text></g></g><g id="SvgjsG1162" transform="translate(187,49)"><path id="SvgjsPath1163" d="M 0 4Q 0 0 4 0L 98 0Q 102 0 102 4L 102 44Q 102 48 98 48L 4 48Q 0 48 0 44Z" stroke="rgba(255,255,255,1)" stroke-width="2" fill-opacity="1" fill="#205375"></path><g id="SvgjsG1164"><text id="SvgjsText1165" font-family="微软雅黑" text-anchor="middle" font-size="13px" width="82px" fill="#ffffff" font-weight="700" align="middle" lineHeight="125%" anchor="middle" family="微软雅黑" size="13px" weight="700" font-style="" opacity="1" y="4.875" transform="rotate(0)"><tspan id="SvgjsTspan1166" dy="16" x="51"><tspan id="SvgjsTspan1167" style="text-decoration:;">feign</tspan></tspan><tspan id="SvgjsTspan1168" dy="16" x="51"><tspan id="SvgjsTspan1169" style="text-decoration:;">filter</tspan></tspan></text></g></g><g id="SvgjsG1170" transform="translate(323,49)"><path id="SvgjsPath1171" d="M 0 4Q 0 0 4 0L 98 0Q 102 0 102 4L 102 44Q 102 48 98 48L 4 48Q 0 48 0 44Z" stroke="rgba(255,255,255,1)" stroke-width="2" fill-opacity="1" fill="#205375"></path><g id="SvgjsG1172"><text id="SvgjsText1173" font-family="微软雅黑" text-anchor="middle" font-size="13px" width="82px" fill="#ffffff" font-weight="700" align="middle" lineHeight="125%" anchor="middle" family="微软雅黑" size="13px" weight="700" font-style="" opacity="1" y="4.875" transform="rotate(0)"><tspan id="SvgjsTspan1174" dy="16" x="51"><tspan id="SvgjsTspan1175" style="text-decoration:;">web</tspan></tspan><tspan id="SvgjsTspan1176" dy="16" x="51"><tspan id="SvgjsTspan1177" style="text-decoration:;">interceptor</tspan></tspan></text></g></g><g id="SvgjsG1178" transform="translate(511,25)"><path id="SvgjsPath1179" d="M 0 4Q 0 0 4 0L 324 0Q 328 0 328 4L 328 92Q 328 96 324 96L 4 96Q 0 96 0 92Z" stroke="none" fill-opacity="1" fill="#205375"></path><g id="SvgjsG1180"><text id="SvgjsText1181" font-family="微软雅黑" text-anchor="middle" font-size="13px" width="308px" fill="#323232" font-weight="400" align="middle" lineHeight="125%" anchor="middle" family="微软雅黑" size="13px" weight="400" font-style="" opacity="1" y="37.375" transform="rotate(0)"></text></g></g><g id="SvgjsG1182" transform="translate(540,49)"><path id="SvgjsPath1183" d="M 0 4Q 0 0 4 0L 122 0Q 126 0 126 4L 126 44Q 126 48 122 48L 4 48Q 0 48 0 44Z" stroke="rgba(255,255,255,1)" stroke-width="2" fill-opacity="1" fill="#205375"></path><g id="SvgjsG1184"><text id="SvgjsText1185" font-family="微软雅黑" text-anchor="middle" font-size="13px" width="106px" fill="#ffffff" font-weight="700" align="middle" lineHeight="125%" anchor="middle" family="微软雅黑" size="13px" weight="700" font-style="" opacity="1" y="13.375" transform="rotate(0)"><tspan id="SvgjsTspan1186" dy="16" x="63"><tspan id="SvgjsTspan1187" style="text-decoration:;">自定义标签扫描器</tspan></tspan></text></g></g><g id="SvgjsG1188" transform="translate(701,49)"><path id="SvgjsPath1189" d="M 0 4Q 0 0 4 0L 112 0Q 116 0 116 4L 116 44Q 116 48 112 48L 4 48Q 0 48 0 44Z" stroke="rgba(255,255,255,1)" stroke-width="2" fill-opacity="1" fill="#205375"></path><g id="SvgjsG1190"><text id="SvgjsText1191" font-family="微软雅黑" text-anchor="middle" font-size="13px" width="96px" fill="#ffffff" font-weight="700" align="middle" lineHeight="125%" anchor="middle" family="微软雅黑" size="13px" weight="700" font-style="" opacity="1" y="13.375" transform="rotate(0)"><tspan id="SvgjsTspan1192" dy="16" x="58"><tspan id="SvgjsTspan1193" style="text-decoration:;">自定义标签</tspan></tspan></text></g></g><g id="SvgjsG1194" transform="translate(25,192)"><path id="SvgjsPath1195" d="M 0 4Q 0 0 4 0L 810 0Q 814 0 814 4L 814 69Q 814 73 810 73L 4 73Q 0 73 0 69Z" stroke="none" fill-opacity="1" fill="#205375"></path><g id="SvgjsG1196"><text id="SvgjsText1197" font-family="微软雅黑" text-anchor="middle" font-size="13px" width="794px" fill="#ffffff" font-weight="700" align="middle" lineHeight="125%" anchor="middle" family="微软雅黑" size="13px" weight="700" font-style="" opacity="1" y="25.875" transform="rotate(0)"><tspan id="SvgjsTspan1198" dy="16" x="407"><tspan id="SvgjsTspan1199" style="text-decoration:;">TLog上下文管理器</tspan></tspan></text></g></g><g id="SvgjsG1200" transform="translate(25,330)"><path id="SvgjsPath1201" d="M 0 4Q 0 0 4 0L 158 0Q 162 0 162 4L 162 136Q 162 140 158 140L 4 140Q 0 140 0 136Z" stroke="none" fill-opacity="1" fill="#205375"></path><g id="SvgjsG1202"><text id="SvgjsText1203" font-family="微软雅黑" text-anchor="middle" font-size="13px" width="142px" fill="#ffffff" font-weight="700" align="middle" lineHeight="125%" anchor="middle" family="微软雅黑" size="13px" weight="700" font-style="" opacity="1" y="59.375" transform="rotate(0)"><tspan id="SvgjsTspan1204" dy="16" x="81"><tspan id="SvgjsTspan1205" style="text-decoration:;">javaagent探针</tspan></tspan></text></g></g><g id="SvgjsG1206" transform="translate(227,330)"><path id="SvgjsPath1207" d="M 0 4Q 0 0 4 0L 158 0Q 162 0 162 4L 162 136Q 162 140 158 140L 4 140Q 0 140 0 136Z" stroke="none" fill-opacity="1" fill="#205375"></path><g id="SvgjsG1208"><text id="SvgjsText1209" font-family="微软雅黑" text-anchor="middle" font-size="13px" width="142px" fill="#ffffff" font-weight="700" align="middle" lineHeight="125%" anchor="middle" family="微软雅黑" size="13px" weight="700" font-style="" opacity="1" y="59.375" transform="rotate(0)"><tspan id="SvgjsTspan1210" dy="16" x="81"><tspan id="SvgjsTspan1211" style="text-decoration:;">字节码注入器</tspan></tspan></text></g></g><g id="SvgjsG1212" transform="translate(429,330)"><path id="SvgjsPath1213" d="M 0 4Q 0 0 4 0L 406 0Q 410 0 410 4L 410 136Q 410 140 406 140L 4 140Q 0 140 0 136Z" stroke="none" fill-opacity="1" fill="#205375"></path><g id="SvgjsG1214"><text id="SvgjsText1215" font-family="微软雅黑" text-anchor="middle" font-size="13px" width="390px" fill="#323232" font-weight="400" align="middle" lineHeight="125%" anchor="middle" family="微软雅黑" size="13px" weight="400" font-style="" opacity="1" y="59.375" transform="rotate(0)"></text></g></g><g id="SvgjsG1216" transform="translate(452,356)"><path id="SvgjsPath1217" d="M 0 4Q 0 0 4 0L 84 0Q 88 0 88 4L 88 84Q 88 88 84 88L 4 88Q 0 88 0 84Z" stroke="rgba(255,255,255,1)" stroke-width="2" fill-opacity="1" fill="#205375"></path><g id="SvgjsG1218"><text id="SvgjsText1219" font-family="微软雅黑" text-anchor="middle" font-size="13px" width="68px" fill="#ffffff" font-weight="700" align="middle" lineHeight="125%" anchor="middle" family="微软雅黑" size="13px" weight="700" font-style="" opacity="1" y="24.875" transform="rotate(0)"><tspan id="SvgjsTspan1220" dy="16" x="44"><tspan id="SvgjsTspan1221" style="text-decoration:;">log4j</tspan></tspan><tspan id="SvgjsTspan1222" dy="16" x="44"><tspan id="SvgjsTspan1223" style="text-decoration:;">适配器</tspan></tspan></text></g></g><g id="SvgjsG1224" transform="translate(590.5,356)"><path id="SvgjsPath1225" d="M 0 4Q 0 0 4 0L 84 0Q 88 0 88 4L 88 84Q 88 88 84 88L 4 88Q 0 88 0 84Z" stroke="rgba(255,255,255,1)" stroke-width="2" fill-opacity="1" fill="#205375"></path><g id="SvgjsG1226"><text id="SvgjsText1227" font-family="微软雅黑" text-anchor="middle" font-size="13px" width="68px" fill="#ffffff" font-weight="700" align="middle" lineHeight="125%" anchor="middle" family="微软雅黑" size="13px" weight="700" font-style="" opacity="1" y="24.875" transform="rotate(0)"><tspan id="SvgjsTspan1228" dy="16" x="44"><tspan id="SvgjsTspan1229" style="text-decoration:;">logback</tspan></tspan><tspan id="SvgjsTspan1230" dy="16" x="44"><tspan id="SvgjsTspan1231" style="text-decoration:;">适配器</tspan></tspan></text></g></g><g id="SvgjsG1232" transform="translate(729,356)"><path id="SvgjsPath1233" d="M 0 4Q 0 0 4 0L 84 0Q 88 0 88 4L 88 84Q 88 88 84 88L 4 88Q 0 88 0 84Z" stroke="rgba(255,255,255,1)" stroke-width="2" fill-opacity="1" fill="#205375"></path><g id="SvgjsG1234"><text id="SvgjsText1235" font-family="微软雅黑" text-anchor="middle" font-size="13px" width="68px" fill="#ffffff" font-weight="700" align="middle" lineHeight="125%" anchor="middle" family="微软雅黑" size="13px" weight="700" font-style="" opacity="1" y="24.875" transform="rotate(0)"><tspan id="SvgjsTspan1236" dy="16" x="44"><tspan id="SvgjsTspan1237" style="text-decoration:;">log4j2</tspan></tspan><tspan id="SvgjsTspan1238" dy="16" x="44"><tspan id="SvgjsTspan1239" style="text-decoration:;">适配器</tspan></tspan></text></g></g><g id="SvgjsG1240" transform="translate(25,549)"><path id="SvgjsPath1241" d="M 0 4Q 0 0 4 0L 810 0Q 814 0 814 4L 814 63Q 814 67 810 67L 4 67Q 0 67 0 63Z" stroke="none" fill-opacity="1" fill="#205375"></path><g id="SvgjsG1242"><text id="SvgjsText1243" font-family="微软雅黑" text-anchor="middle" font-size="13px" width="794px" fill="#ffffff" font-weight="700" align="middle" lineHeight="125%" anchor="middle" family="微软雅黑" size="13px" weight="700" font-style="" opacity="1" y="22.875" transform="rotate(0)"><tspan id="SvgjsTspan1244" dy="16" x="407"><tspan id="SvgjsTspan1245" style="text-decoration:;">log.info / log.warn / log.error 打印带入标签</tspan></tspan></text></g></g><g id="SvgjsG1246"><path id="SvgjsPath1247" d="M238 121L238 156.5L432 156.5L432 188.10000000000002" stroke="#205375" stroke-width="3" fill="none" marker-end="url(#SvgjsMarker1248)"></path></g><g id="SvgjsG1250"><path id="SvgjsPath1251" d="M675 121L675 156.5L432 156.5L432 188.10000000000002" stroke="#205375" stroke-width="3" fill="none" marker-end="url(#SvgjsMarker1252)"></path></g><g id="SvgjsG1254"><path id="SvgjsPath1255" d="M106 330L106 297.5L432 297.5L432 268.9" stroke="#205375" stroke-width="3" fill="none" marker-end="url(#SvgjsMarker1256)"></path></g><g id="SvgjsG1258"><path id="SvgjsPath1259" d="M308 330L308 297.5L432 297.5L432 268.9" stroke="#205375" stroke-width="3" fill="none" marker-end="url(#SvgjsMarker1260)"></path></g><g id="SvgjsG1262"><path id="SvgjsPath1263" d="M634 330L634 297.5L432 297.5L432 268.9" stroke="#205375" stroke-width="3" fill="none" marker-end="url(#SvgjsMarker1264)"></path></g><g id="SvgjsG1266"><path id="SvgjsPath1267" d="M432 549L432 509.5L106 509.5L106 473.9" stroke="#205375" stroke-width="3" fill="none" marker-end="url(#SvgjsMarker1268)"></path></g><g id="SvgjsG1270"><path id="SvgjsPath1271" d="M432 549L432 509.5L308 509.5L308 473.9" stroke="#205375" stroke-width="3" fill="none" marker-end="url(#SvgjsMarker1272)"></path></g><g id="SvgjsG1274"><path id="SvgjsPath1275" d="M432 549L432 509.5L634 509.5L634 473.9" stroke="#205375" stroke-width="3" fill="none" marker-end="url(#SvgjsMarker1276)"></path></g><g id="SvgjsG1278" transform="translate(394,126)"><path id="SvgjsPath1279" d="M 0 0L 76 0L 76 25L 0 25Z" stroke="none" fill="none"></path><g id="SvgjsG1280"><text id="SvgjsText1281" font-family="微软雅黑" text-anchor="middle" font-size="13px" width="76px" fill="#205375" font-weight="700" align="middle" lineHeight="125%" anchor="middle" family="微软雅黑" size="13px" weight="700" font-style="" opacity="1" y="1.875" transform="rotate(0)"><tspan id="SvgjsTspan1282" dy="16" x="38"><tspan id="SvgjsTspan1283" style="text-decoration:;">放入标签</tspan></tspan></text></g></g><g id="SvgjsG1284" transform="translate(394,305)"><path id="SvgjsPath1285" d="M 0 0L 76 0L 76 25L 0 25Z" stroke="none" fill="none"></path><g id="SvgjsG1286"><text id="SvgjsText1287" font-family="微软雅黑" text-anchor="middle" font-size="13px" width="76px" fill="#205375" font-weight="700" align="middle" lineHeight="125%" anchor="middle" family="微软雅黑" size="13px" weight="700" font-style="" opacity="1" y="1.875" transform="rotate(0)"><tspan id="SvgjsTspan1288" dy="16" x="38"><tspan id="SvgjsTspan1289" style="text-decoration:;">获取标签</tspan></tspan></text></g></g></svg>