<svg xmlns="http://www.w3.org/2000/svg" xmlns:xlink="http://www.w3.org/1999/xlink" fill="none" version="1.1" width="500" height="500" viewBox="0 0 500 500"><defs><filter id="master_svg0_1_0" filterUnits="objectBoundingBox" color-interpolation-filters="sRGB" x="-20" y="-16" width="500" height="500"><feFlood flood-opacity="0" result="BackgroundImageFix"/><feColorMatrix in="SourceAlpha" type="matrix" values="0 0 0 0 0 0 0 0 0 0 0 0 0 0 0 0 0 0 127 0"/><feOffset dy="4" dx="0"/><feGaussianBlur stdDeviation="5"/><feColorMatrix type="matrix" values="0 0 0 0 0 0 0 0 0 0 0 0 0 0 0 0 0 0 0.3019607961177826 0"/><feBlend mode="normal" in2="BackgroundImageFix" result="effect1_dropShadow"/><feBlend mode="normal" in="SourceGraphic" in2="effect1_dropShadow" result="shape"/></filter></defs><g filter="url(#master_svg0_1_0)"><g><g><path d="M214.7664857788086,376.82247399902343L214.7664857788086,410.75147399902346C141.0354857788086,394.43947399902345,85.5744857788086,328.86547399902344,85.5744857788086,250.24147399902344C85.5744857788086,208.15587399902344,101.23408577880859,170.31197399902345,127.0070857788086,141.27647399902344L150.4964857788086,164.43947399902345C130.5956857788086,187.60257399902343,118.52478577880859,217.29067399902345,118.52478577880859,250.24047399902344C118.52478577880859,310.5954739990234,159.3049857788086,361.4894739990234,214.7664857788086,376.82247399902343Z" fill="#205375" fill-opacity="1"/></g><g><path d="M414.4260466308594,250.2412559814453C414.4260466308594,340.9362559814453,340.69504663085934,414.3402559814453,250.00004663085937,414.3402559814453Q240.5390466308594,414.3402559814453,231.40424663085938,413.3612559814453L231.40424663085938,393.13425598144534L231.40424663085938,111.91475598144531C208.24114663085936,115.17715598144531,187.03544663085938,124.63825598144531,169.09214663085936,138.3402559814453L145.92904663085938,114.8508559814453C174.31204663085938,91.6877559814453,210.52484663085937,77.65925598144531,250.00004663085937,77.65925598144531C289.47504663085937,77.65925598144531,326.0140466308594,91.68755598144531,354.39704663085934,114.8508559814453L330.9080466308594,138.3402559814453C313.29104663085934,124.63805598144532,291.7590466308594,115.17715598144531,268.5960466308594,111.91475598144531L268.5960466308594,380.4112559814453C332.5390466308594,371.27625598144533,381.47504663085937,316.4682559814453,381.47504663085937,250.2412559814453C381.47504663085937,217.2902559814453,369.4040466308594,187.6022559814453,349.8300466308594,164.43955598144532L372.99304663085934,141.2764559814453C398.76604663085936,170.31205598144533,414.42504663085936,208.15625598144533,414.4260466308594,250.2412559814453Z" fill="#205375" fill-opacity="1"/></g><g><path d="M315.9007003417969,250.24108647460938C315.9007003417969,226.75168647460936,303.50360034179687,206.19848647460938,285.2341003417969,194.7800864746094L285.2341003417969,157.91488647460938C322.4256003417969,172.26958647460938,348.52490034179687,208.15608647460937,348.52490034179687,250.24108647460938C348.52490034179687,291.9998864746094,322.4256003417969,327.88688647460935,285.2341003417969,342.2408864746094L285.2341003417969,305.7018864746094C303.50360034179687,293.9578864746094,315.9007003417969,273.4038864746094,315.9007003417969,250.24108647460938Z" fill="#205375" fill-opacity="1"/></g><g><path d="M214.76603498535155,157.91488647460938L214.76603498535155,194.78018647460937C196.49643498535156,206.19858647460939,184.42553498535156,226.7517864746094,184.42553498535156,250.24108647460938C184.42553498535156,273.4038864746094,196.49643498535156,293.9578864746094,214.76603498535155,305.7018864746094L214.76603498535155,342.2408864746094C177.90073498535156,327.88688647460935,151.47523498535156,291.9998864746094,151.47523498535156,250.24108647460938C151.47523498535156,208.15608647460937,177.90083498535157,172.26948647460938,214.76603498535155,157.91488647460938Z" fill="#205375" fill-opacity="1"/></g><g><path d="M480,246C480,373.234,377.234,476,250,476C123.092,476,20,373.234,20,246C20,119.092,123.092,16,250,16C377.234,16,480,119.092,480,246ZM447.376,246C447.376,137.035,358.965,48.9504,250,48.9504C141.035,48.9504,52.9504,137.035,52.9504,246C52.9504,354.965,141.035,443.376,250,443.376C358.965,443.376,447.376,354.965,447.376,246Z" fill-rule="evenodd" fill="#205375" fill-opacity="1"/></g></g></g></svg>