<svg id="SvgjsSvg1132" width="707" height="440" xmlns="http://www.w3.org/2000/svg" version="1.1" xmlns:xlink="http://www.w3.org/1999/xlink" xmlns:svgjs="http://svgjs.com/svgjs"><defs id="SvgjsDefs1133"><marker id="SvgjsMarker1172" markerWidth="16" markerHeight="12" refX="11" refY="6" viewBox="0 0 16 12" orient="auto" markerUnits="userSpaceOnUse" stroke-dasharray="0,0"><path id="SvgjsPath1173" d="M0,0 L16,6 L0,12 L0,0" fill="#205375" stroke="#205375" stroke-width="1"></path></marker><marker id="SvgjsMarker1176" markerWidth="16" markerHeight="12" refX="11" refY="6" viewBox="0 0 16 12" orient="auto" markerUnits="userSpaceOnUse" stroke-dasharray="0,0"><path id="SvgjsPath1177" d="M0,0 L16,6 L0,12 L0,0" fill="#205375" stroke="#205375" stroke-width="1"></path></marker><marker id="SvgjsMarker1180" markerWidth="16" markerHeight="12" refX="11" refY="6" viewBox="0 0 16 12" orient="auto" markerUnits="userSpaceOnUse" stroke-dasharray="0,0"><path id="SvgjsPath1181" d="M0,0 L16,6 L0,12 L0,0" fill="#205375" stroke="#205375" stroke-width="1"></path></marker><marker id="SvgjsMarker1184" markerWidth="16" markerHeight="12" refX="11" refY="6" viewBox="0 0 16 12" orient="auto" markerUnits="userSpaceOnUse" stroke-dasharray="0,0"><path id="SvgjsPath1185" d="M0,0 L16,6 L0,12 L0,0" fill="#205375" stroke="#205375" stroke-width="1"></path></marker><marker id="SvgjsMarker1188" markerWidth="16" markerHeight="12" refX="11" refY="6" viewBox="0 0 16 12" orient="auto" markerUnits="userSpaceOnUse" stroke-dasharray="0,0"><path id="SvgjsPath1189" d="M0,0 L16,6 L0,12 L0,0" fill="#205375" stroke="#205375" stroke-width="1"></path></marker></defs><g id="SvgjsG1134" transform="translate(25,160.5)"><path id="SvgjsPath1135" d="M 0 4Q 0 0 4 0L 96 0Q 100 0 100 4L 100 66Q 100 70 96 70L 4 70Q 0 70 0 66Z" stroke="none" fill-opacity="1" fill="#205375"></path><g id="SvgjsG1136"><text id="SvgjsText1137" font-family="微软雅黑" text-anchor="middle" font-size="13px" width="80px" fill="#ffffff" font-weight="700" align="middle" lineHeight="125%" anchor="middle" family="微软雅黑" size="13px" weight="700" font-style="" opacity="1" y="24.375" transform="rotate(0)"><tspan id="SvgjsTspan1138" dy="16" x="50"><tspan id="SvgjsTspan1139" style="text-decoration:;">A</tspan></tspan></text></g></g><g id="SvgjsG1140" transform="translate(284,25)"><path id="SvgjsPath1141" d="M 0 0L 100 0L 100 70L 0 70Z" stroke="none" fill-opacity="1" fill="#205375"></path><g id="SvgjsG1142"><text id="SvgjsText1143" font-family="微软雅黑" text-anchor="middle" font-size="13px" width="80px" fill="#ffffff" font-weight="700" align="middle" lineHeight="125%" anchor="middle" family="微软雅黑" size="13px" weight="700" font-style="" opacity="1" y="24.375" transform="rotate(0)"><tspan id="SvgjsTspan1144" dy="16" x="50"><tspan id="SvgjsTspan1145" style="text-decoration:;">B</tspan></tspan></text></g></g><g id="SvgjsG1146" transform="translate(284,160.5)"><path id="SvgjsPath1147" d="M 0 0L 100 0L 100 70L 0 70Z" stroke="none" fill-opacity="1" fill="#205375"></path><g id="SvgjsG1148"><text id="SvgjsText1149" font-family="微软雅黑" text-anchor="middle" font-size="13px" width="80px" fill="#ffffff" font-weight="700" align="middle" lineHeight="125%" anchor="middle" family="微软雅黑" size="13px" weight="700" font-style="" opacity="1" y="24.375" transform="rotate(0)"><tspan id="SvgjsTspan1150" dy="16" x="50"><tspan id="SvgjsTspan1151" style="text-decoration:;">C</tspan></tspan></text></g></g><g id="SvgjsG1152" transform="translate(284,296)"><path id="SvgjsPath1153" d="M 0 0L 100 0L 100 70L 0 70Z" stroke="none" fill-opacity="1" fill="#205375"></path><g id="SvgjsG1154"><text id="SvgjsText1155" font-family="微软雅黑" text-anchor="middle" font-size="13px" width="80px" fill="#ffffff" font-weight="700" align="middle" lineHeight="125%" anchor="middle" family="微软雅黑" size="13px" weight="700" font-style="" opacity="1" y="24.375" transform="rotate(0)"><tspan id="SvgjsTspan1156" dy="16" x="50"><tspan id="SvgjsTspan1157" style="text-decoration:;">D</tspan></tspan></text></g></g><g id="SvgjsG1158" transform="translate(553,101.5)"><path id="SvgjsPath1159" d="M 0 0L 100 0L 100 70L 0 70Z" stroke="none" fill-opacity="1" fill="#205375"></path><g id="SvgjsG1160"><text id="SvgjsText1161" font-family="微软雅黑" text-anchor="middle" font-size="13px" width="80px" fill="#ffffff" font-weight="700" align="middle" lineHeight="125%" anchor="middle" family="微软雅黑" size="13px" weight="700" font-style="" opacity="1" y="24.375" transform="rotate(0)"><tspan id="SvgjsTspan1162" dy="16" x="50"><tspan id="SvgjsTspan1163" style="text-decoration:;">E</tspan></tspan></text></g></g><g id="SvgjsG1164" transform="translate(553,230.5)"><path id="SvgjsPath1165" d="M 0 0L 100 0L 100 70L 0 70Z" stroke="none" fill-opacity="1" fill="#205375"></path><g id="SvgjsG1166"><text id="SvgjsText1167" font-family="微软雅黑" text-anchor="middle" font-size="13px" width="80px" fill="#ffffff" font-weight="700" align="middle" lineHeight="125%" anchor="middle" family="微软雅黑" size="13px" weight="700" font-style="" opacity="1" y="24.375" transform="rotate(0)"><tspan id="SvgjsTspan1168" dy="16" x="50"><tspan id="SvgjsTspan1169" style="text-decoration:;">F</tspan></tspan></text></g></g><g id="SvgjsG1170"><path id="SvgjsPath1171" d="M125 195.5C 208.56195306477707 195.5 200.43804693522293 60 280.1176119231816 60.37021996296559" stroke="#205375" stroke-width="3" fill="none" marker-end="url(#SvgjsMarker1172)"></path></g><g id="SvgjsG1174"><path id="SvgjsPath1175" d="M125 195.5C 188.60000000000002 195.5 220.39999999999998 195.5 280.1 195.5" stroke="#205375" stroke-width="3" fill="none" marker-end="url(#SvgjsMarker1176)"></path></g><g id="SvgjsG1178"><path id="SvgjsPath1179" d="M125 195.5C 208.56195306477707 195.5 200.43804693522293 331 280.1176119231816 330.62978003703444" stroke="#205375" stroke-width="3" fill="none" marker-end="url(#SvgjsMarker1180)"></path></g><g id="SvgjsG1182"><path id="SvgjsPath1183" d="M384 195.5C 455.601117309718 195.5 481.398882690282 136.5 549.1058908429465 136.71427522710735" stroke="#205375" stroke-width="3" fill="none" marker-end="url(#SvgjsMarker1184)"></path></g><g id="SvgjsG1186"><path id="SvgjsPath1187" d="M384 195.5C 457.1693925080699 195.5 479.8306074919301 265.5 549.1076511162325 265.25582758748357" stroke="#205375" stroke-width="3" fill="none" marker-end="url(#SvgjsMarker1188)"></path></g><g id="SvgjsG1190" transform="translate(25,239)"><path id="SvgjsPath1191" d="M 0 0L 128.5 0L 128.5 44L 0 44Z" stroke="none" fill="none"></path><g id="SvgjsG1192"><text id="SvgjsText1193" font-family="微软雅黑" text-anchor="start" font-size="13px" width="129px" fill="#205375" font-weight="700" align="middle" lineHeight="125%" anchor="start" family="微软雅黑" size="13px" weight="700" font-style="" opacity="1" y="2.875" transform="rotate(0)"><tspan id="SvgjsTspan1194" dy="16" x="0"><tspan id="SvgjsTspan1195" style="text-decoration:;">TraceId:oa1234</tspan></tspan><tspan id="SvgjsTspan1196" dy="16" x="0"><tspan id="SvgjsTspan1197" style="text-decoration:;">SpanId:0</tspan></tspan></text></g></g><g id="SvgjsG1198" transform="translate(280,101.5)"><path id="SvgjsPath1199" d="M 0 0L 128.5 0L 128.5 44L 0 44Z" stroke="none" fill="none"></path><g id="SvgjsG1200"><text id="SvgjsText1201" font-family="微软雅黑" text-anchor="start" font-size="13px" width="129px" fill="#205375" font-weight="700" align="middle" lineHeight="125%" anchor="start" family="微软雅黑" size="13px" weight="700" font-style="" opacity="1" y="2.875" transform="rotate(0)"><tspan id="SvgjsTspan1202" dy="16" x="0"><tspan id="SvgjsTspan1203" style="text-decoration:;">TraceId:oa1234</tspan></tspan><tspan id="SvgjsTspan1204" dy="16" x="0"><tspan id="SvgjsTspan1205" style="text-decoration:;">SpanId:0.1</tspan></tspan></text></g></g><g id="SvgjsG1206" transform="translate(284,239)"><path id="SvgjsPath1207" d="M 0 0L 128.5 0L 128.5 44L 0 44Z" stroke="none" fill="none"></path><g id="SvgjsG1208"><text id="SvgjsText1209" font-family="微软雅黑" text-anchor="start" font-size="13px" width="129px" fill="#205375" font-weight="700" align="middle" lineHeight="125%" anchor="start" family="微软雅黑" size="13px" weight="700" font-style="" opacity="1" y="2.875" transform="rotate(0)"><tspan id="SvgjsTspan1210" dy="16" x="0"><tspan id="SvgjsTspan1211" style="text-decoration:;">TraceId:oa1234</tspan></tspan><tspan id="SvgjsTspan1212" dy="16" x="0"><tspan id="SvgjsTspan1213" style="text-decoration:;">SpanId:0.2</tspan></tspan></text></g></g><g id="SvgjsG1214" transform="translate(284,371)"><path id="SvgjsPath1215" d="M 0 0L 128.5 0L 128.5 44L 0 44Z" stroke="none" fill="none"></path><g id="SvgjsG1216"><text id="SvgjsText1217" font-family="微软雅黑" text-anchor="start" font-size="13px" width="129px" fill="#205375" font-weight="700" align="middle" lineHeight="125%" anchor="start" family="微软雅黑" size="13px" weight="700" font-style="" opacity="1" y="2.875" transform="rotate(0)"><tspan id="SvgjsTspan1218" dy="16" x="0"><tspan id="SvgjsTspan1219" style="text-decoration:;">TraceId:oa1234</tspan></tspan><tspan id="SvgjsTspan1220" dy="16" x="0"><tspan id="SvgjsTspan1221" style="text-decoration:;">SpanId:0.3</tspan></tspan></text></g></g><g id="SvgjsG1222" transform="translate(553,173.5)"><path id="SvgjsPath1223" d="M 0 0L 128.5 0L 128.5 44L 0 44Z" stroke="none" fill="none"></path><g id="SvgjsG1224"><text id="SvgjsText1225" font-family="微软雅黑" text-anchor="start" font-size="13px" width="129px" fill="#205375" font-weight="700" align="middle" lineHeight="125%" anchor="start" family="微软雅黑" size="13px" weight="700" font-style="" opacity="1" y="2.875" transform="rotate(0)"><tspan id="SvgjsTspan1226" dy="16" x="0"><tspan id="SvgjsTspan1227" style="text-decoration:;">TraceId:oa1234</tspan></tspan><tspan id="SvgjsTspan1228" dy="16" x="0"><tspan id="SvgjsTspan1229" style="text-decoration:;">SpanId:0.2.1</tspan></tspan></text></g></g><g id="SvgjsG1230" transform="translate(553,309)"><path id="SvgjsPath1231" d="M 0 0L 128.5 0L 128.5 44L 0 44Z" stroke="none" fill="none"></path><g id="SvgjsG1232"><text id="SvgjsText1233" font-family="微软雅黑" text-anchor="start" font-size="13px" width="129px" fill="#205375" font-weight="700" align="middle" lineHeight="125%" anchor="start" family="微软雅黑" size="13px" weight="700" font-style="" opacity="1" y="2.875" transform="rotate(0)"><tspan id="SvgjsTspan1234" dy="16" x="0"><tspan id="SvgjsTspan1235" style="text-decoration:;">TraceId:oa1234</tspan></tspan><tspan id="SvgjsTspan1236" dy="16" x="0"><tspan id="SvgjsTspan1237" style="text-decoration:;">SpanId:0.2.2</tspan></tspan></text></g></g><g id="SvgjsG1238" transform="translate(170,111)"><path id="SvgjsPath1239" d="M 0 0L 55 0L 55 25L 0 25Z" stroke="none" fill="none"></path><g id="SvgjsG1240"><text id="SvgjsText1241" font-family="微软雅黑" text-anchor="middle" font-size="13px" width="55px" fill="#205375" font-weight="700" align="middle" lineHeight="125%" anchor="middle" family="微软雅黑" size="13px" weight="700" font-style="" opacity="1" y="1.875" transform="rotate(0)"><tspan id="SvgjsTspan1242" dy="16" x="27.5"><tspan id="SvgjsTspan1243" style="text-decoration:;">1</tspan></tspan></text></g></g><g id="SvgjsG1244" transform="translate(170,173.5)"><path id="SvgjsPath1245" d="M 0 0L 55 0L 55 25L 0 25Z" stroke="none" fill="none"></path><g id="SvgjsG1246"><text id="SvgjsText1247" font-family="微软雅黑" text-anchor="middle" font-size="13px" width="55px" fill="#205375" font-weight="700" align="middle" lineHeight="125%" anchor="middle" family="微软雅黑" size="13px" weight="700" font-style="" opacity="1" y="1.875" transform="rotate(0)"><tspan id="SvgjsTspan1248" dy="16" x="27.5"><tspan id="SvgjsTspan1249" style="text-decoration:;">2</tspan></tspan></text></g></g><g id="SvgjsG1250" transform="translate(170,225.5)"><path id="SvgjsPath1251" d="M 0 0L 55 0L 55 25L 0 25Z" stroke="none" fill="none"></path><g id="SvgjsG1252"><text id="SvgjsText1253" font-family="微软雅黑" text-anchor="middle" font-size="13px" width="55px" fill="#205375" font-weight="700" align="middle" lineHeight="125%" anchor="middle" family="微软雅黑" size="13px" weight="700" font-style="" opacity="1" y="1.875" transform="rotate(0)"><tspan id="SvgjsTspan1254" dy="16" x="27.5"><tspan id="SvgjsTspan1255" style="text-decoration:;">3</tspan></tspan></text></g></g><g id="SvgjsG1256" transform="translate(445,135.5)"><path id="SvgjsPath1257" d="M 0 0L 55 0L 55 25L 0 25Z" stroke="none" fill="none"></path><g id="SvgjsG1258"><text id="SvgjsText1259" font-family="微软雅黑" text-anchor="middle" font-size="13px" width="55px" fill="#205375" font-weight="700" align="middle" lineHeight="125%" anchor="middle" family="微软雅黑" size="13px" weight="700" font-style="" opacity="1" y="1.875" transform="rotate(0)"><tspan id="SvgjsTspan1260" dy="16" x="27.5"><tspan id="SvgjsTspan1261" style="text-decoration:;">1</tspan></tspan></text></g></g><g id="SvgjsG1262" transform="translate(445,210)"><path id="SvgjsPath1263" d="M 0 0L 55 0L 55 25L 0 25Z" stroke="none" fill="none"></path><g id="SvgjsG1264"><text id="SvgjsText1265" font-family="微软雅黑" text-anchor="middle" font-size="13px" width="55px" fill="#205375" font-weight="700" align="middle" lineHeight="125%" anchor="middle" family="微软雅黑" size="13px" weight="700" font-style="" opacity="1" y="1.875" transform="rotate(0)"><tspan id="SvgjsTspan1266" dy="16" x="27.5"><tspan id="SvgjsTspan1267" style="text-decoration:;">2</tspan></tspan></text></g></g></svg>